<?xml version="1.0" encoding="UTF-8"?>
<svg width="558px" height="229px" viewBox="0 0 558 229" version="1.1" xmlns="http://www.w3.org/2000/svg" xmlns:xlink="http://www.w3.org/1999/xlink">
    <!-- Generator: Sketch 49.2 (51160) - http://www.bohemiancoding.com/sketch -->
    <title>xtremeautoglass-logo</title>
    <desc>Created with Sketch.</desc>
    <defs>
        <path d="M199.158333,41.35 C199.158333,42.816674 198.883336,44.2416597 198.333333,45.625 C197.783331,47.0083403 197.025005,48.233328 196.058333,49.3 C195.091662,50.366672 193.95834,51.2166635 192.658333,51.85 C191.358327,52.4833365 189.941674,52.8 188.408333,52.8 C187.374995,52.8 186.458337,52.600002 185.658333,52.2 C184.858329,51.799998 184.175003,51.26667 183.608333,50.6 C183.041664,49.93333 182.608335,49.1583377 182.308333,48.275 C182.008332,47.3916623 181.858333,46.4666715 181.858333,45.5 C181.858333,43.49999 182.366662,41.5583427 183.383333,39.675 C184.400005,37.7916573 185.758325,36.1250072 187.458333,34.675 C189.158342,33.2249927 191.133322,32.066671 193.383333,31.2 C195.633345,30.333329 197.991654,29.9 200.458333,29.9 C202.158342,29.9 203.583328,30.1583307 204.733333,30.675 C205.883339,31.1916692 206.799997,31.9083287 207.483333,32.825 C208.16667,33.7416713 208.658332,34.8166605 208.958333,36.05 C209.258335,37.2833395 209.408333,38.6166595 209.408333,40.05 C210.575006,38.8833275 211.84166,37.7166725 213.208333,36.55 C214.575007,35.3833275 216.033326,34.3416712 217.583333,33.425 C219.133341,32.5083287 220.774991,31.7583362 222.508333,31.175 C224.241675,30.5916637 226.058324,30.3 227.958333,30.3 C228.625003,30.3 229.266664,30.3416663 229.883333,30.425 C230.500003,30.5083338 231.058331,30.6749988 231.558333,30.925 C232.058336,31.1750012 232.458332,31.5249977 232.758333,31.975 C233.058335,32.4250022 233.208333,32.9999965 233.208333,33.7 C233.208333,34.6666715 232.850004,35.4249972 232.133333,35.975 C231.416663,36.5250027 230.608338,36.8 229.708333,36.8 C229.141664,36.8 228.550003,36.666668 227.933333,36.4 C227.316664,36.133332 226.808335,35.800002 226.408333,35.4 C226.575001,35.1666655 226.749999,34.8750017 226.933333,34.525 C227.116668,34.1749983 227.208333,33.8166685 227.208333,33.45 C227.208333,32.78333 226.983336,32.2583353 226.533333,31.875 C226.083331,31.4916647 225.475004,31.3 224.708333,31.3 C223.508327,31.3 222.158341,31.7166625 220.658333,32.55 C219.158326,33.3833375 217.633341,34.499993 216.083333,35.9 C214.533326,37.300007 213.008341,38.9249907 211.508333,40.775 C210.008326,42.6250092 208.683339,44.583323 207.533333,46.65 C206.383328,48.716677 205.450004,50.8249893 204.733333,52.975 C204.016663,55.1250108 203.658333,57.1833235 203.658333,59.15 C203.658333,61.016676 203.899998,62.5416607 204.383333,63.725 C204.866669,64.9083392 205.808326,65.5 207.208333,65.5 C208.275005,65.5 209.358328,65.2416693 210.458333,64.725 C211.558339,64.2083308 212.649995,63.550004 213.733333,62.75 C214.816672,61.949996 215.849995,61.050005 216.833333,60.05 C217.816672,59.049995 218.724996,58.0583382 219.558333,57.075 C220.391671,56.0916618 221.124997,55.1833375 221.758333,54.35 C222.39167,53.5166625 222.874998,52.8500025 223.208333,52.35 L223.558333,52.7 C222.758329,53.7333385 221.766673,55.049992 220.583333,56.65 C219.399994,58.250008 218.000008,59.7999925 216.383333,61.3 C214.766659,62.8000075 212.933344,64.0916613 210.883333,65.175 C208.833323,66.2583388 206.558346,66.8 204.058333,66.8 C202.858327,66.8 201.850004,66.5750022 201.033333,66.125 C200.216663,65.6749978 199.558336,65.083337 199.058333,64.35 C198.558331,63.616663 198.200001,62.7750048 197.983333,61.825 C197.766666,60.8749952 197.658333,59.900005 197.658333,58.9 C197.658333,58.5333315 197.683333,58.1750017 197.733333,57.825 C197.783334,57.4749982 197.841666,57.1166685 197.908333,56.75 L197.808333,56.75 C196.641661,58.0500065 195.366674,59.299994 193.983333,60.5 C192.599993,61.700006 191.125008,62.766662 189.558333,63.7 C187.991659,64.633338 186.350009,65.3833305 184.633333,65.95 C182.916658,66.5166695 181.141676,66.8 179.308333,66.8 C177.141656,66.8 175.425006,66.3500045 174.158333,65.45 C172.89166,64.5499955 172.258333,63.233342 172.258333,61.5 C172.258333,60.433328 172.566664,59.5500035 173.183333,58.85 C173.800003,58.1499965 174.658328,57.8 175.758333,57.8 C176.558337,57.8 177.25833,58.0499975 177.858333,58.55 C178.458336,59.0500025 178.758333,59.733329 178.758333,60.6 C178.758333,61.1666695 178.591668,61.6916643 178.258333,62.175 C177.924998,62.6583357 177.491669,62.9833325 176.958333,63.15 C177.025,63.9166705 177.341664,64.5833305 177.908333,65.15 C178.475003,65.7166695 179.341661,66 180.508333,66 C182.375009,66 184.233324,65.5250047 186.083333,64.575 C187.933343,63.6249952 189.708325,62.3666745 191.408333,60.8 C193.108342,59.2333255 194.691659,57.45001 196.158333,55.45 C197.625007,53.44999 198.891661,51.4000105 199.958333,49.3 C201.025005,47.1999895 201.866664,45.1250103 202.483333,43.075 C203.100003,41.0249898 203.408333,39.1833415 203.408333,37.55 C203.408333,36.6499955 203.300001,35.800004 203.083333,35 C202.866666,34.199996 202.533336,33.500003 202.083333,32.9 C201.633331,32.299997 201.04167,31.8166685 200.308333,31.45 C199.574996,31.0833315 198.691672,30.9 197.658333,30.9 C196.024992,30.9 194.516674,31.266663 193.133333,32 C191.749993,32.733337 190.558338,33.6916608 189.558333,34.875 C188.558328,36.0583393 187.775003,37.4083258 187.208333,38.925 C186.641664,40.4416743 186.358333,41.9833255 186.358333,43.55 C186.358333,44.350004 186.449999,45.1583293 186.633333,45.975 C186.816668,46.7916708 187.116665,47.5249967 187.533333,48.175 C187.950002,48.8250033 188.491663,49.3583312 189.158333,49.775 C189.825003,50.1916687 190.624995,50.4 191.558333,50.4 C192.625005,50.4 193.591662,50.1083363 194.458333,49.525 C195.325004,48.9416637 196.05833,48.2000045 196.658333,47.3 C197.258336,46.3999955 197.724998,45.416672 198.058333,44.35 C198.391668,43.283328 198.558333,42.283338 198.558333,41.35 L199.158333,41.35 Z M222.358333,49.2 L222.708333,48.4 L226.858333,48.4 L231.108333,41.15 L238.058333,40.9 L233.558333,48.4 L240.408333,48.4 L240.008333,49.2 L233.108333,49.2 C232.641664,50.000004 232.000004,51.0499935 231.183333,52.35 C230.366663,53.6500065 229.558337,54.999993 228.758333,56.4 C227.958329,57.800007 227.258336,59.1499935 226.658333,60.45 C226.05833,61.7500065 225.758333,62.8166625 225.758333,63.65 C225.758333,64.2166695 225.916665,64.633332 226.233333,64.9 C226.550002,65.166668 226.991664,65.3 227.558333,65.3 C228.425004,65.3 229.341662,65.0583357 230.308333,64.575 C231.275005,64.0916643 232.249995,63.4666705 233.233333,62.7 C234.216672,61.9333295 235.166662,61.0750047 236.083333,60.125 C237.000005,59.1749952 237.866663,58.233338 238.683333,57.3 C239.500004,56.366662 240.241663,55.4916707 240.908333,54.675 C241.575003,53.8583292 242.108331,53.2000025 242.508333,52.7 L242.908333,52.9 C241.774994,54.23334 240.575006,55.699992 239.308333,57.3 C238.04166,58.900008 236.675007,60.3916598 235.208333,61.775 C233.741659,63.1583402 232.158342,64.3083288 230.458333,65.225 C228.758325,66.1416713 226.908343,66.6 224.908333,66.6 C223.374992,66.6 222.233337,66.1916708 221.483333,65.375 C220.73333,64.5583292 220.358333,63.5000065 220.358333,62.2 C220.358333,61.53333 220.449999,60.8750032 220.633333,60.225 C220.816668,59.5749967 221.141664,58.7750048 221.608333,57.825 C222.075002,56.8749952 222.691663,55.7166735 223.458333,54.35 C224.225004,52.9833265 225.208327,51.266677 226.408333,49.2 L222.358333,49.2 Z M235.658333,66 L245.758333,48.2 L252.958333,48 L245.308333,59.3 L245.408333,59.4 C247.241676,56.7666535 248.949992,54.650008 250.533333,53.05 C252.116675,51.449992 253.508327,50.4000025 254.708333,49.9 C255.175002,49.3333305 255.591665,48.883335 255.958333,48.55 C256.325002,48.216665 256.799997,47.950001 257.383333,47.75 C257.96667,47.549999 258.749995,47.4083338 259.733333,47.325 C260.716672,47.2416663 262.058325,47.166667 263.758333,47.1 C263.358331,47.500002 262.958335,47.9499975 262.558333,48.45 C262.158331,48.9500025 261.791668,49.4833305 261.458333,50.05 C261.124998,50.6166695 260.850001,51.199997 260.633333,51.8 C260.416666,52.400003 260.308333,52.9833305 260.308333,53.55 C260.308333,54.2500035 260.483332,54.899997 260.833333,55.5 C261.183335,56.100003 261.741663,56.4 262.508333,56.4 C263.008336,56.4 263.508331,56.2916678 264.008333,56.075 C264.508336,55.8583323 264.991664,55.5750017 265.458333,55.225 C265.925002,54.8749982 266.366665,54.4833355 266.783333,54.05 C267.200002,53.6166645 267.574998,53.200002 267.908333,52.8 L268.258333,53.1 C268.024999,53.366668 267.691669,53.7583307 267.258333,54.275 C266.824998,54.7916692 266.250004,55.2999975 265.533333,55.8 C264.816663,56.3000025 263.933339,56.7416647 262.883333,57.125 C261.833328,57.5083353 260.575007,57.7 259.108333,57.7 C258.308329,57.7 257.575003,57.5750012 256.908333,57.325 C256.241663,57.0749987 255.683336,56.750002 255.233333,56.35 C254.783331,55.949998 254.433335,55.483336 254.183333,54.95 C253.933332,54.416664 253.808333,53.850003 253.808333,53.25 C253.808333,52.249995 253.941665,51.4666695 254.208333,50.9 L254.208333,50.8 C253.208328,51.333336 252.116673,52.2166605 250.933333,53.45 C249.749994,54.6833395 248.600006,56.0416592 247.483333,57.525 C246.366661,59.0083408 245.350005,60.4916592 244.433333,61.975 C243.516662,63.4583408 242.825002,64.699995 242.358333,65.7 L235.658333,66 Z M292.258333,53.15 C291.491663,54.2500055 290.633338,55.3583278 289.683333,56.475 C288.733329,57.5916723 287.658339,58.7333275 286.458333,59.9 C284.158322,62.100011 281.925011,63.766661 279.758333,64.9 C277.591656,66.033339 275.175013,66.6 272.508333,66.6 C270.208322,66.6 268.458339,66.066672 267.258333,65 C266.058327,63.933328 265.458333,62.3833435 265.458333,60.35 C265.458333,58.5833245 265.958328,56.9166745 266.958333,55.35 C267.958338,53.7833255 269.216659,52.4166725 270.733333,51.25 C272.250008,50.0833275 273.899991,49.1500035 275.683333,48.45 C277.466676,47.7499965 279.158325,47.4 280.758333,47.4 C282.358341,47.4 283.674995,47.6583307 284.708333,48.175 C285.741672,48.6916693 286.258333,49.5333275 286.258333,50.7 C286.258333,51.8666725 285.691672,52.883329 284.558333,53.75 C283.424994,54.616671 282.083341,55.3583302 280.533333,55.975 C278.983326,56.5916698 277.425008,57.0916647 275.858333,57.475 C274.291659,57.8583353 273.058338,58.149999 272.158333,58.35 C272.091666,58.683335 272.041667,59.016665 272.008333,59.35 C271.975,59.683335 271.958333,60.016665 271.958333,60.35 C271.958333,60.950003 272.024999,61.5416637 272.158333,62.125 C272.291667,62.7083363 272.516665,63.2166645 272.833333,63.65 C273.150002,64.0833355 273.566664,64.433332 274.083333,64.7 C274.600003,64.966668 275.241663,65.1 276.008333,65.1 C277.575008,65.1 279.258324,64.5250058 281.058333,63.375 C282.858342,62.2249942 284.674991,60.783342 286.508333,59.05 C287.675006,57.916661 288.699996,56.816672 289.583333,55.75 C290.466671,54.683328 291.20833,53.716671 291.808333,52.85 L292.258333,53.15 Z M281.258333,49.4 C281.258333,48.466662 280.791671,48 279.858333,48 C279.124996,48 278.333338,48.3749963 277.483333,49.125 C276.633329,49.8750037 275.850004,50.7749947 275.133333,51.825 C274.416663,52.8750053 273.791669,53.9499945 273.258333,55.05 C272.724997,56.1500055 272.391667,57.066663 272.258333,57.8 C273.65834,57.4999985 274.916661,57.0416697 276.033333,56.425 C277.150006,55.8083302 278.099996,55.1166705 278.883333,54.35 C279.666671,53.5833295 280.258331,52.766671 280.658333,51.9 C281.058335,51.033329 281.258333,50.200004 281.258333,49.4 Z M298.508333,66 C298.708334,65.666665 299.066664,65.0916707 299.583333,64.275 C300.100003,63.4583292 300.68333,62.5250052 301.333333,61.475 C301.983337,60.4249947 302.666663,59.3166725 303.383333,58.15 C304.100004,56.9833275 304.749997,55.8750053 305.333333,54.825 C305.91667,53.7749947 306.399998,52.850004 306.783333,52.05 C307.166669,51.249996 307.358333,50.683335 307.358333,50.35 C307.358333,49.5166625 306.925004,49.1 306.058333,49.1 C305.524997,49.1 304.850004,49.399997 304.033333,50 C303.216663,50.600003 302.325005,51.3916617 301.358333,52.375 C300.391662,53.3583383 299.391672,54.4583272 298.358333,55.675 C297.324995,56.8916727 296.350005,58.1166605 295.433333,59.35 C294.516662,60.5833395 293.69167,61.7583277 292.958333,62.875 C292.224996,63.9916723 291.658335,64.9333295 291.258333,65.7 L284.508333,66 C286.108341,63.0333185 287.858324,60.0416817 289.758333,57.025 C291.658343,54.0083183 293.374992,51.066681 294.908333,48.2 L302.108333,48 L295.458333,57.75 L295.558333,57.85 C296.258337,56.983329 297.074995,55.950006 298.008333,54.75 C298.941671,53.549994 299.983328,52.4083387 301.133333,51.325 C302.283339,50.2416613 303.533327,49.3166705 304.883333,48.55 C306.23334,47.7833295 307.641659,47.4 309.108333,47.4 C310.275006,47.4 311.224996,47.7083303 311.958333,48.325 C312.69167,48.9416698 313.058333,49.849994 313.058333,51.05 C313.058333,51.783337 312.975001,52.4083307 312.808333,52.925 C312.641666,53.4416692 312.408335,53.9833305 312.108333,54.55 L312.208333,54.65 L314.233333,52.4 C314.983337,51.5666625 315.791662,50.7750037 316.658333,50.025 C317.525004,49.2749963 318.441662,48.6500025 319.408333,48.15 C320.375005,47.6499975 321.374995,47.4 322.408333,47.4 C323.575006,47.4 324.558329,47.7249968 325.358333,48.375 C326.158337,49.0250032 326.558333,49.9666605 326.558333,51.2 C326.558333,52.3666725 326.208337,53.5583272 325.508333,54.775 C324.80833,55.9916727 324.041671,57.166661 323.208333,58.3 C322.374996,59.433339 321.608337,60.4916618 320.908333,61.475 C320.20833,62.4583382 319.858333,63.2999965 319.858333,64 C319.858333,64.3666685 319.966666,64.6749988 320.183333,64.925 C320.400001,65.1750013 320.724998,65.3 321.158333,65.3 C321.825003,65.3 322.549996,65.0583357 323.333333,64.575 C324.116671,64.0916643 324.916663,63.4750037 325.733333,62.725 C326.550004,61.9749963 327.366663,61.1250048 328.183333,60.175 C329.000004,59.2249952 329.774996,58.2916713 330.508333,57.375 C331.24167,56.4583287 331.90833,55.6083372 332.508333,54.825 C333.108336,54.0416628 333.591665,53.416669 333.958333,52.95 L334.308333,53.25 C333.441662,54.383339 332.408339,55.749992 331.208333,57.35 C330.008327,58.950008 328.725007,60.4666595 327.358333,61.9 C326.09166,63.2666735 324.775007,64.3916622 323.408333,65.275 C322.04166,66.1583378 320.575008,66.6 319.008333,66.6 C318.274996,66.6 317.633336,66.4750013 317.083333,66.225 C316.533331,65.9749987 316.091668,65.6416688 315.758333,65.225 C315.424998,64.8083313 315.175001,64.3500025 315.008333,63.85 C314.841666,63.3499975 314.758333,62.8500025 314.758333,62.35 C314.758333,61.149994 315.091663,59.9583393 315.758333,58.775 C316.425003,57.5916608 317.158329,56.4750052 317.958333,55.425 C318.758337,54.3749947 319.491663,53.416671 320.158333,52.55 C320.825003,51.683329 321.158333,50.9666695 321.158333,50.4 C321.158333,49.9666645 321.033335,49.6416677 320.783333,49.425 C320.533332,49.2083322 320.241668,49.1 319.908333,49.1 C319.374997,49.1 318.708337,49.4083302 317.908333,50.025 C317.108329,50.6416697 316.233338,51.4333285 315.283333,52.4 C314.333329,53.3666715 313.358338,54.4666605 312.358333,55.7 C311.358328,56.9333395 310.416671,58.1666605 309.533333,59.4 C308.649996,60.6333395 307.850004,61.7999945 307.133333,62.9 C306.416663,64.0000055 305.858335,64.9333295 305.458333,65.7 L298.508333,66 Z M358.358333,53.15 C357.591663,54.2500055 356.733338,55.3583278 355.783333,56.475 C354.833329,57.5916723 353.758339,58.7333275 352.558333,59.9 C350.258322,62.100011 348.025011,63.766661 345.858333,64.9 C343.691656,66.033339 341.275013,66.6 338.608333,66.6 C336.308322,66.6 334.558339,66.066672 333.358333,65 C332.158327,63.933328 331.558333,62.3833435 331.558333,60.35 C331.558333,58.5833245 332.058328,56.9166745 333.058333,55.35 C334.058338,53.7833255 335.316659,52.4166725 336.833333,51.25 C338.350008,50.0833275 339.999991,49.1500035 341.783333,48.45 C343.566676,47.7499965 345.258325,47.4 346.858333,47.4 C348.458341,47.4 349.774995,47.6583307 350.808333,48.175 C351.841672,48.6916693 352.358333,49.5333275 352.358333,50.7 C352.358333,51.8666725 351.791672,52.883329 350.658333,53.75 C349.524994,54.616671 348.183341,55.3583302 346.633333,55.975 C345.083326,56.5916698 343.525008,57.0916647 341.958333,57.475 C340.391659,57.8583353 339.158338,58.149999 338.258333,58.35 C338.191666,58.683335 338.141667,59.016665 338.108333,59.35 C338.075,59.683335 338.058333,60.016665 338.058333,60.35 C338.058333,60.950003 338.124999,61.5416637 338.258333,62.125 C338.391667,62.7083363 338.616665,63.2166645 338.933333,63.65 C339.250002,64.0833355 339.666664,64.433332 340.183333,64.7 C340.700003,64.966668 341.341663,65.1 342.108333,65.1 C343.675008,65.1 345.358324,64.5250058 347.158333,63.375 C348.958342,62.2249942 350.774991,60.783342 352.608333,59.05 C353.775006,57.916661 354.799996,56.816672 355.683333,55.75 C356.566671,54.683328 357.30833,53.716671 357.908333,52.85 L358.358333,53.15 Z M347.358333,49.4 C347.358333,48.466662 346.891671,48 345.958333,48 C345.224996,48 344.433338,48.3749963 343.583333,49.125 C342.733329,49.8750037 341.950004,50.7749947 341.233333,51.825 C340.516663,52.8750053 339.891669,53.9499945 339.358333,55.05 C338.824997,56.1500055 338.491667,57.066663 338.358333,57.8 C339.75834,57.4999985 341.016661,57.0416697 342.133333,56.425 C343.250006,55.8083302 344.199996,55.1166705 344.983333,54.35 C345.766671,53.5833295 346.358331,52.766671 346.758333,51.9 C347.158335,51.033329 347.358333,50.200004 347.358333,49.4 Z" id="path-1"></path>
        <filter x="-0.8%" y="-4.1%" width="101.7%" height="113.6%" filterUnits="objectBoundingBox" id="filter-2">
            <feMorphology radius="0.5" operator="dilate" in="SourceAlpha" result="shadowSpreadOuter1"></feMorphology>
            <feOffset dx="0" dy="2" in="shadowSpreadOuter1" result="shadowOffsetOuter1"></feOffset>
            <feComposite in="shadowOffsetOuter1" in2="SourceAlpha" operator="out" result="shadowOffsetOuter1"></feComposite>
            <feColorMatrix values="0 0 0 0 0.894117647   0 0 0 0 0.894117647   0 0 0 0 0.894117647  0 0 0 1 0" type="matrix" in="shadowOffsetOuter1"></feColorMatrix>
        </filter>
        <path d="M186.892334,112.479004 L180.925537,124 L173.022705,124 L200.127197,71.5048828 L217.043701,124 L209.458252,124 L205.903564,112.479004 L186.892334,112.479004 Z M190.034424,106.194824 L203.872314,106.194824 L198.60376,88.7705078 L190.034424,106.194824 Z M263.191162,74.9960938 L259.636475,104.004883 C258.832434,110.394889 257.330171,115.070949 255.129639,118.033203 C251.596092,122.645856 246.687287,124.952148 240.403076,124.952148 C235.367244,124.952148 231.167253,123.428726 227.802979,120.381836 C224.459863,117.292628 222.78833,113.462913 222.78833,108.892578 C222.78833,107.919266 222.825358,106.893072 222.899414,105.813965 C222.97347,104.734858 223.084553,103.592291 223.232666,102.38623 L226.596924,74.9960938 L233.833252,74.9960938 L230.373779,103.306641 C230.267984,104.152999 230.18864,104.935869 230.135742,105.655273 C230.082845,106.374678 230.056396,107.041175 230.056396,107.654785 C230.056396,110.913265 230.966218,113.48404 232.785889,115.367188 C234.626718,117.250335 237.123438,118.191895 240.276123,118.191895 C243.957782,118.191895 246.750723,117.007011 248.655029,114.637207 C250.559336,112.246245 251.850013,108.363634 252.5271,102.989258 L255.954834,74.9960938 L263.191162,74.9960938 Z M287.724854,81.7563477 L282.519775,124 L275.251709,124 L280.456787,81.7563477 L268.745361,81.7563477 L269.570557,74.9960938 L299.753662,74.9960938 L298.928467,81.7563477 L287.724854,81.7563477 Z M351.201416,98.5458984 C351.201416,104.131864 349.720311,109.199359 346.758057,113.748535 C344.409412,117.324399 341.341409,120.085602 337.553955,122.032227 C333.766501,123.978851 329.57709,124.952148 324.985596,124.952148 C317.643437,124.952148 311.655541,122.614118 307.021729,117.937988 C302.387916,113.240699 300.071045,107.168169 300.071045,99.7202148 C300.071045,92.2934199 302.525447,86.1574135 307.434326,81.3120117 C312.364364,76.4454509 318.585005,74.012207 326.096436,74.012207 C333.607866,74.012207 339.669817,76.2656025 344.282471,80.7724609 C348.895124,85.2581604 351.201416,91.1825804 351.201416,98.5458984 Z M343.901611,98.4824219 C343.901611,93.129205 342.314713,88.8445799 339.140869,85.628418 C335.967025,82.433415 331.703559,80.8359375 326.350342,80.8359375 C320.975966,80.8359375 316.458596,82.6344221 312.798096,86.2314453 C309.179914,89.8284685 307.37085,94.3246801 307.37085,99.7202148 C307.37085,105.052273 309.052962,109.46385 312.417236,112.955078 C315.781511,116.425148 320.034398,118.160156 325.176025,118.160156 C330.529242,118.160156 334.983137,116.287616 338.537842,112.54248 C342.113706,108.839662 343.901611,104.153023 343.901611,98.4824219 Z M383.701416,101.211914 L403.315674,101.211914 C402.829018,106.776721 401.496023,111.336408 399.31665,114.891113 C395.211812,121.598504 389.118123,124.952148 381.0354,124.952148 C374.222215,124.952148 368.615175,122.656436 364.214111,118.064941 C359.813048,113.473447 357.612549,107.612503 357.612549,100.481934 C357.612549,96.6098439 358.363681,92.8330262 359.865967,89.1513672 C361.347094,85.554344 363.420641,82.5498167 366.08667,80.1376953 C370.55121,76.054016 376.084196,74.012207 382.685791,74.012207 C390.768514,74.012207 397.465224,77.302376 402.776123,83.8828125 L398.047119,88.7070312 C394.048076,83.4596092 388.885367,80.8359375 382.558838,80.8359375 C377.332575,80.8359375 373.090267,82.6450014 369.831787,86.2631836 C366.552148,89.9236837 364.912354,94.610323 364.912354,100.323242 C364.912354,105.570664 366.446355,109.855289 369.514404,113.177246 C372.582453,116.499203 376.570858,118.160156 381.479736,118.160156 C384.949806,118.160156 387.912016,117.208017 390.366455,115.303711 C392.799735,113.399405 394.365475,110.796892 395.063721,107.496094 L382.907959,107.496094 L383.701416,101.211914 Z M422.676025,74.9960938 L417.502686,117.239746 L431.372314,117.239746 L430.547119,124 L409.409424,124 L415.439697,74.9960938 L422.676025,74.9960938 Z M449.145752,112.479004 L443.178955,124 L435.276123,124 L462.380615,71.5048828 L479.297119,124 L471.71167,124 L468.156982,112.479004 L449.145752,112.479004 Z M452.287842,106.194824 L466.125732,106.194824 L460.857178,88.7705078 L452.287842,106.194824 Z M516.811768,81.2485352 L511.955811,85.8823242 C509.649484,82.4968906 507.004654,80.8041992 504.02124,80.8041992 C501.863026,80.8041992 500.075121,81.4706965 498.657471,82.8037109 C497.23982,84.1367254 496.531006,85.8082582 496.531006,87.8183594 C496.531006,89.4264403 497.017655,90.8123314 497.990967,91.9760742 C498.477623,92.5262072 499.191727,93.1503871 500.133301,93.8486328 C501.074874,94.5468785 502.254469,95.3191689 503.672119,96.1655273 C507.882752,98.6199667 510.696852,100.841624 512.114502,102.830566 C513.553311,104.840668 514.272705,107.474919 514.272705,110.733398 C514.272705,114.96519 512.876235,118.392891 510.083252,121.016602 C507.332587,123.640313 503.70388,124.952148 499.197021,124.952148 C495.55768,124.952148 492.479098,124.169279 489.961182,122.603516 C488.691644,121.820634 487.50676,120.79973 486.406494,119.540771 C485.306228,118.281813 484.248296,116.753101 483.232666,114.95459 L488.755127,111.209473 C490.257413,113.854343 491.727939,115.673986 493.166748,116.668457 C494.605557,117.662928 496.478097,118.160156 498.784424,118.160156 C501.344658,118.160156 503.349439,117.48308 504.798828,116.128906 C506.248217,114.774733 506.9729,112.849296 506.9729,110.352539 C506.9729,108.638663 506.443934,107.189296 505.385986,106.004395 C504.857012,105.390785 504.068853,104.703129 503.021484,103.941406 C501.974116,103.179684 500.646411,102.322759 499.03833,101.370605 C495.356671,99.1912326 492.785896,97.1176856 491.325928,95.1499023 C489.929436,93.1821191 489.231201,90.7171372 489.231201,87.7548828 C489.231201,83.7981573 490.606513,80.5185677 493.357178,77.9160156 C496.107843,75.2923046 499.57786,73.9804688 503.767334,73.9804688 C506.49684,73.9804688 508.824291,74.5305935 510.749756,75.6308594 C512.717539,76.7311253 514.73819,78.6036652 516.811768,81.2485352 Z M553.1521,81.2485352 L548.296143,85.8823242 C545.989816,82.4968906 543.344986,80.8041992 540.361572,80.8041992 C538.203358,80.8041992 536.415453,81.4706965 534.997803,82.8037109 C533.580152,84.1367254 532.871338,85.8082582 532.871338,87.8183594 C532.871338,89.4264403 533.357987,90.8123314 534.331299,91.9760742 C534.817955,92.5262072 535.532059,93.1503871 536.473633,93.8486328 C537.415207,94.5468785 538.594801,95.3191689 540.012451,96.1655273 C544.223084,98.6199667 547.037184,100.841624 548.454834,102.830566 C549.893643,104.840668 550.613037,107.474919 550.613037,110.733398 C550.613037,114.96519 549.216567,118.392891 546.423584,121.016602 C543.672919,123.640313 540.044212,124.952148 535.537354,124.952148 C531.898012,124.952148 528.81943,124.169279 526.301514,122.603516 C525.031976,121.820634 523.847092,120.79973 522.746826,119.540771 C521.64656,118.281813 520.588628,116.753101 519.572998,114.95459 L525.095459,111.209473 C526.597745,113.854343 528.068271,115.673986 529.50708,116.668457 C530.945889,117.662928 532.818429,118.160156 535.124756,118.160156 C537.68499,118.160156 539.689771,117.48308 541.13916,116.128906 C542.588549,114.774733 543.313232,112.849296 543.313232,110.352539 C543.313232,108.638663 542.784266,107.189296 541.726318,106.004395 C541.197344,105.390785 540.409185,104.703129 539.361816,103.941406 C538.314448,103.179684 536.986743,102.322759 535.378662,101.370605 C531.697003,99.1912326 529.126228,97.1176856 527.66626,95.1499023 C526.269768,93.1821191 525.571533,90.7171372 525.571533,87.7548828 C525.571533,83.7981573 526.946845,80.5185677 529.69751,77.9160156 C532.448175,75.2923046 535.918192,73.9804688 540.107666,73.9804688 C542.837172,73.9804688 545.164623,74.5305935 547.090088,75.6308594 C549.057871,76.7311253 551.078522,78.6036652 553.1521,81.2485352 Z" id="path-3"></path>
        <filter x="-0.6%" y="-5.2%" width="101.2%" height="114.6%" filterUnits="objectBoundingBox" id="filter-4">
            <feMorphology radius="0.5" operator="dilate" in="SourceAlpha" result="shadowSpreadOuter1"></feMorphology>
            <feOffset dx="0" dy="3" in="shadowSpreadOuter1" result="shadowOffsetOuter1"></feOffset>
            <feComposite in="shadowOffsetOuter1" in2="SourceAlpha" operator="out" result="shadowOffsetOuter1"></feComposite>
            <feColorMatrix values="0 0 0 0 0.894117647   0 0 0 0 0.894117647   0 0 0 0 0.894117647  0 0 0 1 0" type="matrix" in="shadowOffsetOuter1"></feColorMatrix>
        </filter>
        <path d="M477.094759,130 C476.228088,130.200001 475.38643,130.416665 474.569759,130.65 C473.753088,130.883334 472.96143,131.233331 472.194759,131.7 C473.128097,132.066668 474.003088,132.533331 474.819759,133.1 C475.63643,133.66667 476.344756,134.316663 476.944759,135.05 C477.544762,135.783337 478.019757,136.599996 478.369759,137.5 C478.719761,138.400004 478.894759,139.383328 478.894759,140.45 C478.894759,142.150009 478.553096,143.624994 477.869759,144.875 C477.186422,146.125006 476.286431,147.166663 475.169759,148 C474.053087,148.833337 472.803099,149.458331 471.419759,149.875 C470.036419,150.291669 468.644766,150.5 467.244759,150.5 C466.611423,150.5 465.978096,150.425001 465.344759,150.275 C464.711423,150.124999 464.136428,149.900002 463.619759,149.6 C463.10309,149.299999 462.678094,148.925002 462.344759,148.475 C462.011424,148.024998 461.844759,147.500003 461.844759,146.9 C461.844759,146.199996 462.10309,145.625002 462.619759,145.175 C463.136428,144.724998 463.778089,144.5 464.544759,144.5 C465.378097,144.5 466.061423,144.766664 466.594759,145.3 C466.12809,145.633335 465.76976,146.049997 465.519759,146.55 C465.269758,147.050003 465.144759,147.58333 465.144759,148.15 C465.144759,148.616669 465.269758,148.991665 465.519759,149.275 C465.76976,149.558335 466.12809,149.7 466.594759,149.7 C467.528097,149.7 468.386422,149.283338 469.169759,148.45 C469.953096,147.616663 470.636423,146.616672 471.219759,145.45 C471.803095,144.283327 472.261424,143.050006 472.594759,141.75 C472.928094,140.449994 473.094759,139.350005 473.094759,138.45 C473.094759,137.249994 472.844762,136.175005 472.344759,135.225 C471.844757,134.274995 471.194763,133.516669 470.394759,132.95 C468.294749,134.683342 466.536433,136.57499 465.119759,138.625 C463.703085,140.67501 462.403098,142.766656 461.219759,144.9 C460.03642,147.033344 458.878098,149.14999 457.744759,151.25 C456.61142,153.35001 455.261434,155.333324 453.694759,157.2 C452.128085,159.066676 450.261437,160.758326 448.094759,162.275 C445.928082,163.791674 443.211442,165.033328 439.944759,166 L439.944759,166.1 C440.644763,166.2 441.428088,166.291666 442.294759,166.375 C443.16143,166.458334 444.044755,166.533333 444.944759,166.6 C445.844764,166.666667 446.711422,166.716667 447.544759,166.75 C448.378097,166.783333 449.094756,166.8 449.694759,166.8 C452.128105,166.8 454.519747,166.600002 456.869759,166.2 C459.219771,165.799998 461.494748,165.108338 463.694759,164.125 C465.89477,163.141662 468.011416,161.800008 470.044759,160.1 C472.078103,158.399991 473.978084,156.250013 475.744759,153.65 L476.194759,153.9 C474.561418,156.233345 472.911434,158.274991 471.244759,160.025 C469.578084,161.775009 467.819768,163.224994 465.969759,164.375 C464.11975,165.525006 462.111437,166.38333 459.944759,166.95 C457.778082,167.51667 455.378106,167.8 452.744759,167.8 C451.211418,167.8 449.694767,167.741667 448.194759,167.625 C446.694752,167.508333 445.311432,167.375001 444.044759,167.225 C442.778086,167.074999 441.68643,166.933334 440.769759,166.8 C439.853088,166.666666 439.211428,166.566667 438.844759,166.5 C437.578086,166.766668 436.286432,166.983333 434.969759,167.15 C433.653086,167.316667 432.194767,167.4 430.594759,167.4 C428.79475,167.4 427.386431,167.200002 426.369759,166.8 C425.353087,166.399998 424.844759,165.91667 424.844759,165.35 C424.844759,164.516662 425.428087,164.1 426.594759,164.1 C427.394763,164.1 428.328087,164.166666 429.394759,164.3 C430.461431,164.433334 431.544754,164.591666 432.644759,164.775 C433.744765,164.958334 434.803087,165.149999 435.819759,165.35 C436.836431,165.550001 437.711422,165.699999 438.444759,165.8 C439.778099,165.333331 440.969754,164.675004 442.019759,163.825 C443.069764,162.974996 444.069754,161.933339 445.019759,160.7 C445.969764,159.46666 446.919754,158.058341 447.869759,156.475 C448.819764,154.891659 449.844754,153.133343 450.944759,151.2 C452.044765,149.266657 453.219753,147.32501 454.469759,145.375 C455.719765,143.42499 457.061419,141.575009 458.494759,139.825 C459.9281,138.074991 461.486417,136.50834 463.169759,135.125 C464.853101,133.74166 466.694749,132.650004 468.694759,131.85 C467.794755,131.416664 466.703099,131.100001 465.419759,130.9 C464.136419,130.699999 462.911432,130.6 461.744759,130.6 C458.878078,130.6 456.01144,131.066662 453.144759,132 C450.278078,132.933338 447.694771,134.233325 445.394759,135.9 C443.094748,137.566675 441.2281,139.558322 439.794759,141.875 C438.361419,144.191678 437.644759,146.749986 437.644759,149.55 C437.644759,150.21667 437.719758,150.88333 437.869759,151.55 C438.01976,152.21667 438.269757,152.808331 438.619759,153.325 C438.969761,153.841669 439.419756,154.266665 439.969759,154.6 C440.519762,154.933335 441.178089,155.1 441.944759,155.1 C443.244766,155.1 444.361421,154.750003 445.294759,154.05 C446.228097,153.349997 446.994756,152.483339 447.594759,151.45 C448.194762,150.416662 448.636424,149.325006 448.919759,148.175 C449.203094,147.024994 449.344759,146.000004 449.344759,145.1 C449.344759,144.099995 449.286426,143.275003 449.169759,142.625 C449.053092,141.974997 448.911427,141.36667 448.744759,140.8 L449.294759,140.75 C449.428093,141.283336 449.569758,141.874997 449.719759,142.525 C449.86976,143.175003 449.944759,144.033328 449.944759,145.1 C449.944759,146.400006 449.728095,147.783326 449.294759,149.25 C448.861424,150.716674 448.21143,152.066661 447.344759,153.3 C446.478088,154.53334 445.369766,155.558329 444.019759,156.375 C442.669752,157.191671 441.078102,157.6 439.244759,157.6 C437.044748,157.6 435.261433,156.941673 433.894759,155.625 C432.528086,154.308327 431.844759,152.550011 431.844759,150.35 C431.844759,148.149989 432.344754,146.125009 433.344759,144.275 C434.344764,142.424991 435.661418,140.741674 437.294759,139.225 C438.928101,137.708326 440.803082,136.375006 442.919759,135.225 C445.036436,134.074994 447.211415,133.11667 449.444759,132.35 C451.678104,131.583329 453.886415,131.000002 456.069759,130.6 C458.253103,130.199998 460.228084,130 461.994759,130 C463.961436,130 465.611419,130.116666 466.944759,130.35 C468.278099,130.583335 469.461421,130.866665 470.494759,131.2 C470.661427,131.133333 470.961424,131.016667 471.394759,130.85 C471.828095,130.683333 472.344756,130.516668 472.944759,130.35 C473.544762,130.183333 474.194756,130.033334 474.894759,129.9 C475.594763,129.766666 476.278089,129.7 476.944759,129.7 L477.094759,130 Z M469.094759,167 L479.194759,149.2 L486.394759,149 L478.744759,160.3 L478.844759,160.4 C480.678102,157.766654 482.386418,155.650008 483.969759,154.05 C485.5531,152.449992 486.944753,151.400002 488.144759,150.9 C488.611428,150.33333 489.028091,149.883335 489.394759,149.55 C489.761428,149.216665 490.236423,148.950001 490.819759,148.75 C491.403095,148.549999 492.186421,148.408334 493.169759,148.325 C494.153097,148.241666 495.494751,148.166667 497.194759,148.1 C496.794757,148.500002 496.394761,148.949997 495.994759,149.45 C495.594757,149.950003 495.228094,150.48333 494.894759,151.05 C494.561424,151.61667 494.286427,152.199997 494.069759,152.8 C493.853091,153.400003 493.744759,153.98333 493.744759,154.55 C493.744759,155.250003 493.919757,155.899997 494.269759,156.5 C494.619761,157.100003 495.178089,157.4 495.944759,157.4 C496.444762,157.4 496.944757,157.291668 497.444759,157.075 C497.944762,156.858332 498.42809,156.575002 498.894759,156.225 C499.361428,155.874998 499.80309,155.483336 500.219759,155.05 C500.636428,154.616665 501.011424,154.200002 501.344759,153.8 L501.694759,154.1 C501.461425,154.366668 501.128095,154.758331 500.694759,155.275 C500.261424,155.791669 499.686429,156.299997 498.969759,156.8 C498.253089,157.300003 497.369764,157.741665 496.319759,158.125 C495.269754,158.508335 494.011433,158.7 492.544759,158.7 C491.744755,158.7 491.011429,158.575001 490.344759,158.325 C489.678089,158.074999 489.119761,157.750002 488.669759,157.35 C488.219757,156.949998 487.86976,156.483336 487.619759,155.95 C487.369758,155.416664 487.244759,154.850003 487.244759,154.25 C487.244759,153.249995 487.378091,152.466669 487.644759,151.9 L487.644759,151.8 C486.644754,152.333336 485.553098,153.21666 484.369759,154.45 C483.18642,155.683339 482.036431,157.041659 480.919759,158.525 C479.803087,160.008341 478.78643,161.491659 477.869759,162.975 C476.953088,164.458341 476.261428,165.699995 475.794759,166.7 L469.094759,167 Z M531.144759,154.15 C531.011425,154.283334 530.794761,154.508332 530.494759,154.825 C530.194758,155.141668 529.819761,155.458332 529.369759,155.775 C528.919757,156.091668 528.411429,156.374999 527.844759,156.625 C527.27809,156.875001 526.661429,157 525.994759,157 C525.128088,157 524.353096,156.791669 523.669759,156.375 C522.986422,155.958331 522.361429,155.400003 521.794759,154.7 L521.694759,154.7 C521.694759,156.433342 521.28643,158.083326 520.469759,159.65 C519.653088,161.216675 518.569766,162.591661 517.219759,163.775 C515.869752,164.958339 514.328101,165.891663 512.594759,166.575 C510.861417,167.258337 509.061435,167.6 507.194759,167.6 C506.094754,167.6 505.028098,167.483335 503.994759,167.25 C502.961421,167.016665 502.044763,166.633336 501.244759,166.1 C500.444755,165.566664 499.803095,164.866671 499.319759,164 C498.836423,163.133329 498.594759,162.066673 498.594759,160.8 C498.594759,158.899991 499.044755,157.183341 499.944759,155.65 C500.844764,154.116659 502.003085,152.808339 503.419759,151.725 C504.836433,150.641661 506.436417,149.816669 508.219759,149.25 C510.003101,148.683331 511.761417,148.4 513.494759,148.4 C514.9281,148.4 516.111421,148.599998 517.044759,149 C517.978097,149.400002 518.769756,149.891664 519.419759,150.475 C520.069762,151.058336 520.619757,151.699996 521.069759,152.4 C521.519761,153.100004 521.969757,153.741664 522.419759,154.325 C522.869761,154.908336 523.369756,155.399998 523.919759,155.8 C524.469762,156.200002 525.161422,156.4 525.994759,156.4 C526.76143,156.4 527.553088,156.175002 528.369759,155.725 C529.18643,155.274998 529.978089,154.616671 530.744759,153.75 L531.144759,154.15 Z M514.294759,149 C513.494755,149 512.68643,149.274997 511.869759,149.825 C511.053088,150.375003 510.26143,151.091662 509.494759,151.975 C508.728089,152.858338 508.011429,153.858328 507.344759,154.975 C506.678089,156.091672 506.094762,157.216661 505.594759,158.35 C505.094757,159.483339 504.703094,160.583328 504.419759,161.65 C504.136424,162.716672 503.994759,163.649996 503.994759,164.45 C503.994759,165.21667 504.169757,165.833331 504.519759,166.3 C504.869761,166.766669 505.361423,167 505.994759,167 C506.794763,167 507.603088,166.725003 508.419759,166.175 C509.23643,165.624997 510.028089,164.908338 510.794759,164.025 C511.56143,163.141662 512.278089,162.141672 512.944759,161.025 C513.611429,159.908328 514.194757,158.783339 514.694759,157.65 C515.194762,156.516661 515.586424,155.408339 515.869759,154.325 C516.153094,153.241661 516.294759,152.31667 516.294759,151.55 C516.294759,150.78333 516.119761,150.166669 515.769759,149.7 C515.419757,149.233331 514.928096,149 514.294759,149 Z M553.994759,154.1 C552.76142,155.933343 551.453099,157.666658 550.069759,159.3 C548.686419,160.933341 547.144768,162.36666 545.444759,163.6 C543.744751,164.833339 541.84477,165.80833 539.744759,166.525 C537.644749,167.24167 535.244773,167.6 532.544759,167.6 C531.544754,167.6 530.603097,167.500001 529.719759,167.3 C528.836421,167.099999 528.078096,166.783335 527.444759,166.35 C526.811423,165.916664 526.311428,165.358337 525.944759,164.675 C525.578091,163.991663 525.394759,163.183338 525.394759,162.25 C525.394759,161.016661 525.786422,160.04167 526.569759,159.325 C527.353096,158.60833 528.261421,158.25 529.294759,158.25 C529.994763,158.25 530.594757,158.449998 531.094759,158.85 C531.594762,159.250002 531.844759,159.849996 531.844759,160.65 C531.844759,161.383337 531.628095,161.933332 531.194759,162.3 C530.761424,162.666669 530.278095,162.85 529.744759,162.85 C529.344757,162.85 529.011427,162.800001 528.744759,162.7 C528.578092,162.966668 528.494759,163.283332 528.494759,163.65 C528.494759,164.716672 528.77809,165.541664 529.344759,166.125 C529.911429,166.708336 530.744754,167 531.844759,167 C533.2781,167 534.344756,166.583337 535.044759,165.75 C535.744763,164.916663 536.094759,163.916673 536.094759,162.75 C536.094759,162.049996 535.878095,161.36667 535.444759,160.7 C535.011424,160.03333 534.536428,159.358337 534.019759,158.675 C533.50309,157.991663 533.028095,157.308337 532.594759,156.625 C532.161424,155.941663 531.944759,155.250003 531.944759,154.55 C531.944759,153.749996 532.128091,152.983337 532.494759,152.25 C532.861428,151.516663 533.403089,150.858336 534.119759,150.275 C534.836429,149.691664 535.711421,149.233335 536.744759,148.9 C537.778098,148.566665 538.961419,148.4 540.294759,148.4 C542.228102,148.4 543.803086,148.724997 545.019759,149.375 C546.236432,150.025003 546.844759,150.96666 546.844759,152.2 C546.844759,153.133338 546.528096,153.891664 545.894759,154.475 C545.261423,155.058336 544.51143,155.35 543.644759,155.35 C542.878089,155.35 542.161429,155.150002 541.494759,154.75 C541.728094,154.383331 541.911425,154.000002 542.044759,153.6 C542.178093,153.199998 542.244759,152.750002 542.244759,152.25 C542.244759,151.416663 542.053094,150.66667 541.669759,150 C541.286424,149.33333 540.66143,149 539.794759,149 C539.028089,149 538.428095,149.266664 537.994759,149.8 C537.561424,150.333336 537.344759,151.033329 537.344759,151.9 C537.344759,152.733338 537.594757,153.50833 538.094759,154.225 C538.594762,154.94167 539.136423,155.649996 539.719759,156.35 C540.303095,157.050004 540.844757,157.783329 541.344759,158.55 C541.844762,159.31667 542.094759,160.183329 542.094759,161.15 C542.094759,162.283339 541.836428,163.241663 541.319759,164.025 C540.80309,164.808337 540.011431,165.499997 538.944759,166.1 L539.044759,166.2 C540.4781,165.799998 541.886419,165.175004 543.269759,164.325 C544.653099,163.474996 545.978086,162.483339 547.244759,161.35 C548.511432,160.216661 549.68642,158.991673 550.769759,157.675 C551.853098,156.358327 552.811422,155.03334 553.644759,153.7 L553.994759,154.1 Z" id="path-5"></path>
        <filter x="-1.2%" y="-3.9%" width="102.4%" height="113.1%" filterUnits="objectBoundingBox" id="filter-6">
            <feMorphology radius="0.5" operator="dilate" in="SourceAlpha" result="shadowSpreadOuter1"></feMorphology>
            <feOffset dx="0" dy="2" in="shadowSpreadOuter1" result="shadowOffsetOuter1"></feOffset>
            <feComposite in="shadowOffsetOuter1" in2="SourceAlpha" operator="out" result="shadowOffsetOuter1"></feComposite>
            <feColorMatrix values="0 0 0 0 0.894117647   0 0 0 0 0.894117647   0 0 0 0 0.894117647  0 0 0 1 0" type="matrix" in="shadowOffsetOuter1"></feColorMatrix>
        </filter>
        <path d="M334.511426,170 C333.644755,170.200001 332.803097,170.416665 331.986426,170.65 C331.169755,170.883334 330.378096,171.233331 329.611426,171.7 C330.544764,172.066668 331.419755,172.533331 332.236426,173.1 C333.053097,173.66667 333.761423,174.316663 334.361426,175.05 C334.961429,175.783337 335.436424,176.599996 335.786426,177.5 C336.136428,178.400004 336.311426,179.383328 336.311426,180.45 C336.311426,182.150009 335.969763,183.624994 335.286426,184.875 C334.603089,186.125006 333.703098,187.166663 332.586426,188 C331.469754,188.833337 330.219766,189.458331 328.836426,189.875 C327.453086,190.291669 326.061433,190.5 324.661426,190.5 C324.028089,190.5 323.394762,190.425001 322.761426,190.275 C322.128089,190.124999 321.553095,189.900002 321.036426,189.6 C320.519757,189.299999 320.094761,188.925002 319.761426,188.475 C319.428091,188.024998 319.261426,187.500003 319.261426,186.9 C319.261426,186.199996 319.519757,185.625002 320.036426,185.175 C320.553095,184.724998 321.194755,184.5 321.961426,184.5 C322.794763,184.5 323.47809,184.766664 324.011426,185.3 C323.544757,185.633335 323.186427,186.049997 322.936426,186.55 C322.686425,187.050003 322.561426,187.58333 322.561426,188.15 C322.561426,188.616669 322.686425,188.991665 322.936426,189.275 C323.186427,189.558335 323.544757,189.7 324.011426,189.7 C324.944764,189.7 325.803089,189.283338 326.586426,188.45 C327.369763,187.616663 328.05309,186.616672 328.636426,185.45 C329.219762,184.283327 329.678091,183.050006 330.011426,181.75 C330.344761,180.449994 330.511426,179.350005 330.511426,178.45 C330.511426,177.249994 330.261428,176.175005 329.761426,175.225 C329.261423,174.274995 328.61143,173.516669 327.811426,172.95 C325.711415,174.683342 323.9531,176.57499 322.536426,178.625 C321.119752,180.67501 319.819765,182.766656 318.636426,184.9 C317.453087,187.033344 316.294765,189.14999 315.161426,191.25 C314.028087,193.35001 312.6781,195.333324 311.111426,197.2 C309.544751,199.066676 307.678103,200.758326 305.511426,202.275 C303.344748,203.791674 300.628109,205.033328 297.361426,206 L297.361426,206.1 C298.061429,206.2 298.844755,206.291666 299.711426,206.375 C300.578097,206.458334 301.461421,206.533333 302.361426,206.6 C303.26143,206.666667 304.128088,206.716667 304.961426,206.75 C305.794763,206.783333 306.511423,206.8 307.111426,206.8 C309.544771,206.8 311.936414,206.600002 314.286426,206.2 C316.636438,205.799998 318.911415,205.108338 321.111426,204.125 C323.311437,203.141662 325.428082,201.800008 327.461426,200.1 C329.494769,198.399991 331.39475,196.250013 333.161426,193.65 L333.611426,193.9 C331.978084,196.233345 330.328101,198.274991 328.661426,200.025 C326.994751,201.775009 325.236435,203.224994 323.386426,204.375 C321.536417,205.525006 319.528103,206.38333 317.361426,206.95 C315.194748,207.51667 312.794772,207.8 310.161426,207.8 C308.628085,207.8 307.111433,207.741667 305.611426,207.625 C304.111418,207.508333 302.728099,207.375001 301.461426,207.225 C300.194753,207.074999 299.103097,206.933334 298.186426,206.8 C297.269755,206.666666 296.628094,206.566667 296.261426,206.5 C294.994753,206.766668 293.703099,206.983333 292.386426,207.15 C291.069753,207.316667 289.611434,207.4 288.011426,207.4 C286.211417,207.4 284.803098,207.200002 283.786426,206.8 C282.769754,206.399998 282.261426,205.91667 282.261426,205.35 C282.261426,204.516662 282.844753,204.1 284.011426,204.1 C284.81143,204.1 285.744754,204.166666 286.811426,204.3 C287.878098,204.433334 288.96142,204.591666 290.061426,204.775 C291.161431,204.958334 292.219754,205.149999 293.236426,205.35 C294.253098,205.550001 295.128089,205.699999 295.861426,205.8 C297.194766,205.333331 298.386421,204.675004 299.436426,203.825 C300.486431,202.974996 301.486421,201.933339 302.436426,200.7 C303.386431,199.46666 304.336421,198.058341 305.286426,196.475 C306.236431,194.891659 307.26142,193.133343 308.361426,191.2 C309.461431,189.266657 310.63642,187.32501 311.886426,185.375 C313.136432,183.42499 314.478085,181.575009 315.911426,179.825 C317.344766,178.074991 318.903084,176.50834 320.586426,175.125 C322.269768,173.74166 324.111416,172.650004 326.111426,171.85 C325.211421,171.416664 324.119766,171.100001 322.836426,170.9 C321.553086,170.699999 320.328098,170.6 319.161426,170.6 C316.294745,170.6 313.428107,171.066662 310.561426,172 C307.694745,172.933338 305.111437,174.233325 302.811426,175.9 C300.511414,177.566675 298.644766,179.558322 297.211426,181.875 C295.778085,184.191678 295.061426,186.749986 295.061426,189.55 C295.061426,190.21667 295.136425,190.88333 295.286426,191.55 C295.436427,192.21667 295.686424,192.808331 296.036426,193.325 C296.386428,193.841669 296.836423,194.266665 297.386426,194.6 C297.936429,194.933335 298.594755,195.1 299.361426,195.1 C300.661432,195.1 301.778088,194.750003 302.711426,194.05 C303.644764,193.349997 304.411423,192.483339 305.011426,191.45 C305.611429,190.416662 306.053091,189.325006 306.336426,188.175 C306.619761,187.024994 306.761426,186.000004 306.761426,185.1 C306.761426,184.099995 306.703093,183.275003 306.586426,182.625 C306.469759,181.974997 306.328093,181.36667 306.161426,180.8 L306.711426,180.75 C306.84476,181.283336 306.986425,181.874997 307.136426,182.525 C307.286427,183.175003 307.361426,184.033328 307.361426,185.1 C307.361426,186.400006 307.144761,187.783326 306.711426,189.25 C306.27809,190.716674 305.628097,192.066661 304.761426,193.3 C303.894755,194.53334 302.786433,195.558329 301.436426,196.375 C300.086419,197.191671 298.494768,197.6 296.661426,197.6 C294.461415,197.6 292.678099,196.941673 291.311426,195.625 C289.944752,194.308327 289.261426,192.550011 289.261426,190.35 C289.261426,188.149989 289.761421,186.125009 290.761426,184.275 C291.761431,182.424991 293.078084,180.741674 294.711426,179.225 C296.344767,177.708326 298.219749,176.375006 300.336426,175.225 C302.453103,174.074994 304.628081,173.11667 306.861426,172.35 C309.09477,171.583329 311.303082,171.000002 313.486426,170.6 C315.66977,170.199998 317.64475,170 319.411426,170 C321.378102,170 323.028086,170.116666 324.361426,170.35 C325.694766,170.583335 326.878087,170.866665 327.911426,171.2 C328.078093,171.133333 328.37809,171.016667 328.811426,170.85 C329.244761,170.683333 329.761423,170.516668 330.361426,170.35 C330.961429,170.183333 331.611422,170.033334 332.311426,169.9 C333.011429,169.766666 333.694756,169.7 334.361426,169.7 L334.511426,170 Z M344.011426,189 C342.944754,190.700008 341.894764,192.349992 340.861426,193.95 C339.828087,195.550008 338.91143,197.04166 338.111426,198.425 C337.311422,199.80834 336.669762,201.033328 336.186426,202.1 C335.70309,203.166672 335.461426,204.016663 335.461426,204.65 C335.461426,205.116669 335.544758,205.508332 335.711426,205.825 C335.878093,206.141668 336.17809,206.3 336.611426,206.3 C337.278096,206.3 338.003089,206.058336 338.786426,205.575 C339.569763,205.091664 340.378088,204.475004 341.211426,203.725 C342.044763,202.974996 342.878088,202.125005 343.711426,201.175 C344.544763,200.224995 345.328089,199.291671 346.061426,198.375 C346.794763,197.458329 347.45309,196.591671 348.036426,195.775 C348.619762,194.958329 349.094757,194.300003 349.461426,193.8 L349.861426,193.95 C349.061422,195.083339 348.061432,196.458325 346.861426,198.075 C345.66142,199.691675 344.311433,201.266659 342.811426,202.8 C341.278085,204.366674 339.861432,205.558329 338.561426,206.375 C337.261419,207.191671 335.811434,207.6 334.211426,207.6 C332.844752,207.6 331.811429,207.208337 331.111426,206.425 C330.411422,205.641663 330.061426,204.550007 330.061426,203.15 C330.061426,201.649992 330.703086,199.775011 331.986426,197.525 C333.269766,195.274989 334.894749,192.500017 336.861426,189.2 L344.011426,189 Z M341.461426,181.2 C341.461426,180.233328 341.803089,179.408337 342.486426,178.725 C343.169763,178.041663 343.994754,177.7 344.961426,177.7 C345.928097,177.7 346.753089,178.041663 347.436426,178.725 C348.119763,179.408337 348.461426,180.233328 348.461426,181.2 C348.461426,182.166672 348.119763,182.991663 347.436426,183.675 C346.753089,184.358337 345.928097,184.7 344.961426,184.7 C343.994754,184.7 343.169763,184.358337 342.486426,183.675 C341.803089,182.991663 341.461426,182.166672 341.461426,181.2 Z M348.761426,190.2 L349.111426,189.4 L353.261426,189.4 L357.511426,182.15 L364.461426,181.9 L359.961426,189.4 L366.811426,189.4 L366.411426,190.2 L359.511426,190.2 C359.044757,191.000004 358.403097,192.049993 357.586426,193.35 C356.769755,194.650007 355.96143,195.999993 355.161426,197.4 C354.361422,198.800007 353.661429,200.149993 353.061426,201.45 C352.461423,202.750006 352.161426,203.816663 352.161426,204.65 C352.161426,205.216669 352.319758,205.633332 352.636426,205.9 C352.953094,206.166668 353.394756,206.3 353.961426,206.3 C354.828097,206.3 355.744754,206.058336 356.711426,205.575 C357.678097,205.091664 358.653088,204.46667 359.636426,203.7 C360.619764,202.93333 361.569755,202.075005 362.486426,201.125 C363.403097,200.174995 364.269755,199.233338 365.086426,198.3 C365.903097,197.366662 366.644756,196.491671 367.311426,195.675 C367.978096,194.858329 368.511424,194.200002 368.911426,193.7 L369.311426,193.9 C368.178087,195.23334 366.978099,196.699992 365.711426,198.3 C364.444753,199.900008 363.0781,201.39166 361.611426,202.775 C360.144752,204.15834 358.561434,205.308329 356.861426,206.225 C355.161417,207.141671 353.311436,207.6 351.311426,207.6 C349.778085,207.6 348.63643,207.191671 347.886426,206.375 C347.136422,205.558329 346.761426,204.500006 346.761426,203.2 C346.761426,202.53333 346.853092,201.875003 347.036426,201.225 C347.21976,200.574997 347.544757,199.775005 348.011426,198.825 C348.478095,197.874995 349.094755,196.716674 349.861426,195.35 C350.628096,193.983327 351.61142,192.266677 352.811426,190.2 L348.761426,190.2 Z M367.911426,190.2 L368.261426,189.4 L372.411426,189.4 L376.661426,182.15 L383.611426,181.9 L379.111426,189.4 L385.961426,189.4 L385.561426,190.2 L378.661426,190.2 C378.194757,191.000004 377.553097,192.049993 376.736426,193.35 C375.919755,194.650007 375.11143,195.999993 374.311426,197.4 C373.511422,198.800007 372.811429,200.149993 372.211426,201.45 C371.611423,202.750006 371.311426,203.816663 371.311426,204.65 C371.311426,205.216669 371.469758,205.633332 371.786426,205.9 C372.103094,206.166668 372.544756,206.3 373.111426,206.3 C373.978097,206.3 374.894754,206.058336 375.861426,205.575 C376.828097,205.091664 377.803088,204.46667 378.786426,203.7 C379.769764,202.93333 380.719755,202.075005 381.636426,201.125 C382.553097,200.174995 383.419755,199.233338 384.236426,198.3 C385.053097,197.366662 385.794756,196.491671 386.461426,195.675 C387.128096,194.858329 387.661424,194.200002 388.061426,193.7 L388.461426,193.9 C387.328087,195.23334 386.128099,196.699992 384.861426,198.3 C383.594753,199.900008 382.2281,201.39166 380.761426,202.775 C379.294752,204.15834 377.711434,205.308329 376.011426,206.225 C374.311417,207.141671 372.461436,207.6 370.461426,207.6 C368.928085,207.6 367.78643,207.191671 367.036426,206.375 C366.286422,205.558329 365.911426,204.500006 365.911426,203.2 C365.911426,202.53333 366.003092,201.875003 366.186426,201.225 C366.36976,200.574997 366.694757,199.775005 367.161426,198.825 C367.628095,197.874995 368.244755,196.716674 369.011426,195.35 C369.778096,193.983327 370.76142,192.266677 371.961426,190.2 L367.911426,190.2 Z M411.111426,194.1 C409.878086,195.933343 408.569766,197.666658 407.186426,199.3 C405.803086,200.933341 404.261434,202.36666 402.561426,203.6 C400.861417,204.833339 398.961436,205.80833 396.861426,206.525 C394.761415,207.24167 392.361439,207.6 389.661426,207.6 C388.661421,207.6 387.719764,207.500001 386.836426,207.3 C385.953088,207.099999 385.194762,206.783335 384.561426,206.35 C383.928089,205.916664 383.428094,205.358337 383.061426,204.675 C382.694757,203.991663 382.511426,203.183338 382.511426,202.25 C382.511426,201.016661 382.903089,200.04167 383.686426,199.325 C384.469763,198.60833 385.378087,198.25 386.411426,198.25 C387.111429,198.25 387.711423,198.449998 388.211426,198.85 C388.711428,199.250002 388.961426,199.849996 388.961426,200.65 C388.961426,201.383337 388.744761,201.933332 388.311426,202.3 C387.87809,202.666669 387.394762,202.85 386.861426,202.85 C386.461424,202.85 386.128094,202.800001 385.861426,202.7 C385.694758,202.966668 385.611426,203.283332 385.611426,203.65 C385.611426,204.716672 385.894756,205.541664 386.461426,206.125 C387.028095,206.708336 387.86142,207 388.961426,207 C390.394766,207 391.461422,206.583337 392.161426,205.75 C392.861429,204.916663 393.211426,203.916673 393.211426,202.75 C393.211426,202.049996 392.994761,201.36667 392.561426,200.7 C392.12809,200.03333 391.653095,199.358337 391.136426,198.675 C390.619757,197.991663 390.144761,197.308337 389.711426,196.625 C389.27809,195.941663 389.061426,195.250003 389.061426,194.55 C389.061426,193.749996 389.244757,192.983337 389.611426,192.25 C389.978094,191.516663 390.519756,190.858336 391.236426,190.275 C391.953096,189.691664 392.828087,189.233335 393.861426,188.9 C394.894764,188.566665 396.078086,188.4 397.411426,188.4 C399.344769,188.4 400.919753,188.724997 402.136426,189.375 C403.353099,190.025003 403.961426,190.96666 403.961426,192.2 C403.961426,193.133338 403.644762,193.891664 403.011426,194.475 C402.378089,195.058336 401.628097,195.35 400.761426,195.35 C399.994755,195.35 399.278096,195.150002 398.611426,194.75 C398.84476,194.383331 399.028092,194.000002 399.161426,193.6 C399.29476,193.199998 399.361426,192.750002 399.361426,192.25 C399.361426,191.416663 399.169761,190.66667 398.786426,190 C398.403091,189.33333 397.778097,189 396.911426,189 C396.144755,189 395.544761,189.266664 395.111426,189.8 C394.67809,190.333336 394.461426,191.033329 394.461426,191.9 C394.461426,192.733338 394.711423,193.50833 395.211426,194.225 C395.711428,194.94167 396.25309,195.649996 396.836426,196.35 C397.419762,197.050004 397.961423,197.783329 398.461426,198.55 C398.961428,199.31667 399.211426,200.183329 399.211426,201.15 C399.211426,202.283339 398.953095,203.241663 398.436426,204.025 C397.919757,204.808337 397.128098,205.499997 396.061426,206.1 L396.161426,206.2 C397.594766,205.799998 399.003086,205.175004 400.386426,204.325 C401.769766,203.474996 403.094753,202.483339 404.361426,201.35 C405.628099,200.216661 406.803087,198.991673 407.886426,197.675 C408.969765,196.358327 409.928088,195.03334 410.761426,193.7 L411.111426,194.1 Z M432.011426,171.7 C429.344746,176.033355 427.028102,179.808317 425.061426,183.025 C423.094749,186.241683 421.4031,188.999989 419.986426,191.3 C418.569752,193.600011 417.419764,195.524992 416.536426,197.075 C415.653088,198.625008 414.953095,199.908328 414.436426,200.925 C413.919757,201.941672 413.578093,202.774997 413.411426,203.425 C413.244758,204.075003 413.178092,204.649997 413.211426,205.15 C413.311426,206.38334 413.96142,207 415.161426,207 C416.394765,207 417.603087,206.550005 418.786426,205.65 C419.969765,204.749996 421.053088,203.625007 422.036426,202.275 C423.019764,200.924993 423.869756,199.483341 424.586426,197.95 C425.303096,196.416659 425.811424,195.000006 426.111426,193.7 C426.044759,193.433332 425.978093,193.158335 425.911426,192.875 C425.844759,192.591665 425.811426,192.283335 425.811426,191.95 C425.811426,191.083329 426.094756,190.275004 426.661426,189.525 C427.228095,188.774996 428.044754,188.4 429.111426,188.4 C430.078097,188.4 430.85309,188.73333 431.436426,189.4 C432.019762,190.06667 432.311426,191.033327 432.311426,192.3 C432.311426,192.600001 432.286426,192.983331 432.236426,193.45 C432.186426,193.916669 432.09476,194.399997 431.961426,194.9 C432.328094,195.266669 432.786423,195.608332 433.336426,195.925 C433.886429,196.241668 434.594755,196.4 435.461426,196.4 C436.494764,196.4 437.378089,196.11667 438.111426,195.55 C438.844763,194.98333 439.47809,194.383336 440.011426,193.75 L440.311426,194.15 C440.078091,194.450001 439.803094,194.766665 439.486426,195.1 C439.169758,195.433335 438.811428,195.741665 438.411426,196.025 C438.011424,196.308335 437.561428,196.541666 437.061426,196.725 C436.561423,196.908334 435.994762,197 435.361426,197 C434.628089,197 433.953096,196.850001 433.336426,196.55 C432.719756,196.249999 432.228094,195.900002 431.861426,195.5 C431.32809,197.233342 430.503098,198.841659 429.386426,200.325 C428.269754,201.808341 426.969767,203.091661 425.486426,204.175 C424.003085,205.258339 422.386435,206.099997 420.636426,206.7 C418.886417,207.300003 417.111435,207.6 415.311426,207.6 C413.178082,207.6 411.494765,207.033339 410.261426,205.9 C409.028086,204.766661 408.411426,203.183344 408.411426,201.15 C408.411426,200.58333 408.511425,199.958337 408.711426,199.275 C408.911427,198.591663 409.25309,197.766672 409.736426,196.8 C410.219762,195.833328 410.869755,194.666674 411.686426,193.3 C412.503097,191.933326 413.51142,190.27501 414.711426,188.325 C415.911432,186.37499 417.336418,184.075013 418.986426,181.425 C420.636434,178.774987 422.544748,175.700018 424.711426,172.2 L432.011426,171.7 Z M450.411426,188.6 L448.661426,191.3 C447.061418,193.700012 445.778097,195.658326 444.811426,197.175 C443.844754,198.691674 443.094762,199.924995 442.561426,200.875 C442.02809,201.825005 441.678093,202.558331 441.511426,203.075 C441.344758,203.591669 441.261426,204.049998 441.261426,204.45 C441.261426,204.883335 441.386425,205.233332 441.636426,205.5 C441.886427,205.766668 442.211424,205.9 442.611426,205.9 C443.278096,205.9 444.136421,205.525004 445.186426,204.775 C446.236431,204.024996 447.38642,202.93334 448.636426,201.5 C449.886432,200.06666 451.211419,198.316677 452.611426,196.25 C454.011433,194.183323 455.394752,191.833347 456.761426,189.2 L464.011426,189 C463.711424,189.500002 463.286429,190.166663 462.736426,191 C462.186423,191.833337 461.569763,192.741662 460.886426,193.725 C460.203089,194.708338 459.503096,195.749995 458.786426,196.85 C458.069756,197.950006 457.419762,199.008328 456.836426,200.025 C456.25309,201.041672 455.778094,201.991662 455.411426,202.875 C455.044757,203.758338 454.861426,204.48333 454.861426,205.05 C454.861426,205.516669 454.961425,205.841666 455.161426,206.025 C455.361427,206.208334 455.628091,206.3 455.961426,206.3 C456.528095,206.3 457.186422,206.066669 457.936426,205.6 C458.68643,205.133331 459.486422,204.525004 460.336426,203.775 C461.18643,203.024996 462.053088,202.183338 462.936426,201.25 C463.819764,200.316662 464.653089,199.383338 465.436426,198.45 C466.219763,197.516662 466.944756,196.633337 467.611426,195.8 C468.278096,194.966662 468.811424,194.283336 469.211426,193.75 L469.661426,194.15 C469.094756,194.81667 468.444763,195.608329 467.711426,196.525 C466.978089,197.441671 466.18643,198.399995 465.336426,199.4 C464.486422,200.400005 463.586431,201.391662 462.636426,202.375 C461.686421,203.358338 460.711431,204.233329 459.711426,205 C458.711421,205.766671 457.703098,206.391664 456.686426,206.875 C455.669754,207.358336 454.661431,207.6 453.661426,207.6 C452.928089,207.6 452.294762,207.483335 451.761426,207.25 C451.22809,207.016665 450.794761,206.700002 450.461426,206.3 C450.128091,205.899998 449.878093,205.441669 449.711426,204.925 C449.544758,204.408331 449.461426,203.883336 449.461426,203.35 C449.461426,202.949998 449.511425,202.550002 449.611426,202.15 C449.711426,201.749998 449.811425,201.416668 449.911426,201.15 L449.811426,201.05 C449.078089,201.883338 448.328096,202.691663 447.561426,203.475 C446.794755,204.258337 445.994763,204.95833 445.161426,205.575 C444.328088,206.19167 443.478097,206.683332 442.611426,207.05 C441.744755,207.416669 440.86143,207.6 439.961426,207.6 C438.561419,207.6 437.528096,207.191671 436.861426,206.375 C436.194756,205.558329 435.861426,204.516673 435.861426,203.25 C435.861426,202.58333 436.011424,201.825004 436.311426,200.975 C436.611427,200.124996 436.994757,199.233338 437.461426,198.3 C437.928095,197.366662 438.45309,196.416672 439.036426,195.45 C439.619762,194.483328 440.17809,193.575004 440.711426,192.725 C441.244762,191.874996 441.736424,191.108337 442.186426,190.425 C442.636428,189.741663 442.978091,189.200002 443.211426,188.8 L450.411426,188.6 Z M462.761426,207 L472.861426,189.2 L480.061426,189 L472.411426,200.3 L472.511426,200.4 C474.344768,197.766654 476.053085,195.650008 477.636426,194.05 C479.219767,192.449992 480.61142,191.400002 481.811426,190.9 C482.278095,190.33333 482.694757,189.883335 483.061426,189.55 C483.428094,189.216665 483.90309,188.950001 484.486426,188.75 C485.069762,188.549999 485.853088,188.408334 486.836426,188.325 C487.819764,188.241666 489.161417,188.166667 490.861426,188.1 C490.461424,188.500002 490.061428,188.949997 489.661426,189.45 C489.261424,189.950003 488.894761,190.48333 488.561426,191.05 C488.228091,191.61667 487.953094,192.199997 487.736426,192.8 C487.519758,193.400003 487.411426,193.98333 487.411426,194.55 C487.411426,195.250003 487.586424,195.899997 487.936426,196.5 C488.286428,197.100003 488.844755,197.4 489.611426,197.4 C490.111428,197.4 490.611423,197.291668 491.111426,197.075 C491.611428,196.858332 492.094757,196.575002 492.561426,196.225 C493.028095,195.874998 493.469757,195.483336 493.886426,195.05 C494.303095,194.616665 494.678091,194.200002 495.011426,193.8 L495.361426,194.1 C495.128091,194.366668 494.794761,194.758331 494.361426,195.275 C493.92809,195.791669 493.353096,196.299997 492.636426,196.8 C491.919756,197.300003 491.036431,197.741665 489.986426,198.125 C488.936421,198.508335 487.6781,198.7 486.211426,198.7 C485.411422,198.7 484.678096,198.575001 484.011426,198.325 C483.344756,198.074999 482.786428,197.750002 482.336426,197.35 C481.886424,196.949998 481.536427,196.483336 481.286426,195.95 C481.036425,195.416664 480.911426,194.850003 480.911426,194.25 C480.911426,193.249995 481.044758,192.466669 481.311426,191.9 L481.311426,191.8 C480.311421,192.333336 479.219765,193.21666 478.036426,194.45 C476.853087,195.683339 475.703098,197.041659 474.586426,198.525 C473.469754,200.008341 472.453097,201.491659 471.536426,202.975 C470.619755,204.458341 469.928095,205.699995 469.461426,206.7 L462.761426,207 Z M491.461426,202.35 C491.461426,200.616658 491.903088,198.916675 492.786426,197.25 C493.669764,195.583325 494.819752,194.091673 496.236426,192.775 C497.6531,191.458327 499.24475,190.400004 501.011426,189.6 C502.778101,188.799996 504.561417,188.4 506.361426,188.4 C507.428098,188.4 508.369755,188.591665 509.186426,188.975 C510.003097,189.358335 510.694756,190.149994 511.261426,191.35 L512.461426,189 L519.411426,188.7 C517.678084,191.666682 515.953101,194.574986 514.236426,197.425 C512.519751,200.275014 510.811434,203.149986 509.111426,206.05 C510.644767,205.516664 512.119752,204.808338 513.536426,203.925 C514.9531,203.041662 516.294753,202.058339 517.561426,200.975 C518.828099,199.891661 520.03642,198.733339 521.186426,197.5 C522.336432,196.266661 523.411421,195.03334 524.411426,193.8 L524.761426,194.15 C523.761421,195.416673 522.644765,196.699994 521.411426,198 C520.178086,199.300006 518.878099,200.516661 517.511426,201.65 C516.144752,202.783339 514.719767,203.799995 513.236426,204.7 C511.753085,205.600005 510.2281,206.283331 508.661426,206.75 C507.394753,209.316679 505.894768,211.616657 504.161426,213.65 C502.428084,215.683344 500.553103,217.408326 498.536426,218.825 C496.519749,220.241674 494.411437,221.324996 492.211426,222.075 C490.011415,222.825004 487.79477,223.2 485.561426,223.2 C484.194752,223.2 482.844766,223.066668 481.511426,222.8 C480.178086,222.533332 478.986431,222.108336 477.936426,221.525 C476.886421,220.941664 476.036429,220.191671 475.386426,219.275 C474.736423,218.358329 474.411426,217.23334 474.411426,215.9 C474.411426,215.033329 474.586424,214.225004 474.936426,213.475 C475.286428,212.724996 475.828089,212.066669 476.561426,211.5 C477.294763,210.933331 478.244753,210.491668 479.411426,210.175 C480.578098,209.858332 481.978084,209.7 483.611426,209.7 L486.811426,209.7 L486.811426,210.3 L485.711426,210.3 C484.111418,210.3 482.828097,210.766662 481.861426,211.7 C480.894754,212.633338 480.411426,214.083324 480.411426,216.05 C480.411426,216.950005 480.544758,217.799996 480.811426,218.6 C481.078094,219.400004 481.469757,220.091664 481.986426,220.675 C482.503095,221.258336 483.119756,221.724998 483.836426,222.075 C484.553096,222.425002 485.361421,222.6 486.261426,222.6 C488.294769,222.6 490.236417,221.850008 492.086426,220.35 C493.936435,218.849992 495.678084,216.900012 497.311426,214.5 L504.961426,203.35 L504.861426,203.25 C503.694753,204.616673 502.3531,205.68333 500.836426,206.45 C499.319752,207.21667 497.761434,207.6 496.161426,207.6 C494.661418,207.6 493.503097,207.108338 492.686426,206.125 C491.869755,205.141662 491.461426,203.883341 491.461426,202.35 Z M497.961426,203.1 C497.961426,203.733337 498.069758,204.308331 498.286426,204.825 C498.503094,205.341669 498.994755,205.6 499.761426,205.6 C500.461429,205.6 501.194755,205.358336 501.961426,204.875 C502.728096,204.391664 503.478089,203.758337 504.211426,202.975 C504.944763,202.191663 505.644756,201.300005 506.311426,200.3 C506.978096,199.299995 507.55309,198.275005 508.036426,197.225 C508.519762,196.174995 508.911424,195.158338 509.211426,194.175 C509.511427,193.191662 509.661426,192.31667 509.661426,191.55 C509.661426,190.749996 509.453095,190.125002 509.036426,189.675 C508.619757,189.224998 508.078096,189 507.411426,189 C506.711422,189 505.994763,189.233331 505.261426,189.7 C504.528089,190.166669 503.811429,190.774996 503.111426,191.525 C502.411422,192.275004 501.744762,193.141662 501.111426,194.125 C500.478089,195.108338 499.928095,196.124995 499.461426,197.175 C498.994757,198.225005 498.628094,199.258328 498.361426,200.275 C498.094758,201.291672 497.961426,202.233329 497.961426,203.1 Z M517.661426,207 C521.094776,201.199971 524.478076,195.408362 527.811426,189.625 C531.144776,183.841638 534.528075,178.033363 537.961426,172.2 L545.111426,171.7 C542.344745,176.333356 539.553107,180.999977 536.736426,185.7 C533.919745,190.400024 531.094773,194.883312 528.261426,199.15 L528.361426,199.25 C529.128096,198.216661 530.019754,197.075006 531.036426,195.825 C532.053098,194.574994 533.16142,193.400005 534.361426,192.3 C535.561432,191.199995 536.828086,190.275004 538.161426,189.525 C539.494766,188.774996 540.828086,188.4 542.161426,188.4 C543.261431,188.4 544.219755,188.691664 545.036426,189.275 C545.853097,189.858336 546.261426,190.833326 546.261426,192.2 C546.261426,193.400006 545.919763,194.608327 545.236426,195.825 C544.553089,197.041673 543.794763,198.208328 542.961426,199.325 C542.128088,200.441672 541.369763,201.499995 540.686426,202.5 C540.003089,203.500005 539.661426,204.366663 539.661426,205.1 C539.661426,205.466668 539.753092,205.758332 539.936426,205.975 C540.11976,206.191668 540.394757,206.3 540.761426,206.3 C541.428096,206.3 542.186422,206.025003 543.036426,205.475 C543.88643,204.924997 544.753088,204.233338 545.636426,203.4 C546.519764,202.566663 547.394755,201.641672 548.261426,200.625 C549.128097,199.608328 549.928089,198.641671 550.661426,197.725 C551.394763,196.808329 552.02809,195.99167 552.561426,195.275 C553.094762,194.55833 553.478091,194.066668 553.711426,193.8 L554.011426,194.05 C553.444756,194.750003 552.819763,195.566662 552.136426,196.5 C551.453089,197.433338 550.703097,198.408328 549.886426,199.425 C549.069755,200.441672 548.21143,201.433329 547.311426,202.4 C546.411421,203.366671 545.486431,204.241663 544.536426,205.025 C543.586421,205.808337 542.603098,206.433331 541.586426,206.9 C540.569754,207.366669 539.544764,207.6 538.511426,207.6 C537.878089,207.6 537.311428,207.475001 536.811426,207.225 C536.311423,206.974999 535.894761,206.641669 535.561426,206.225 C535.228091,205.808331 534.978093,205.325003 534.811426,204.775 C534.644758,204.224997 534.561426,203.66667 534.561426,203.1 C534.561426,201.833327 534.878089,200.650005 535.511426,199.55 C536.144762,198.449995 536.836422,197.408338 537.586426,196.425 C538.33643,195.441662 539.019756,194.525004 539.636426,193.675 C540.253096,192.824996 540.561426,192.050004 540.561426,191.35 C540.561426,190.516662 540.178096,190.1 539.411426,190.1 C538.811423,190.1 538.08643,190.374997 537.236426,190.925 C536.386422,191.475003 535.486431,192.208329 534.536426,193.125 C533.586421,194.041671 532.619764,195.083327 531.636426,196.25 C530.653088,197.416673 529.71143,198.61666 528.811426,199.85 C527.911421,201.083339 527.08643,202.291661 526.336426,203.475 C525.586422,204.658339 524.978095,205.733328 524.511426,206.7 L517.661426,207 Z" id="path-7"></path>
        <filter x="-0.6%" y="-2.8%" width="101.2%" height="109.3%" filterUnits="objectBoundingBox" id="filter-8">
            <feMorphology radius="0.5" operator="dilate" in="SourceAlpha" result="shadowSpreadOuter1"></feMorphology>
            <feOffset dx="0" dy="2" in="shadowSpreadOuter1" result="shadowOffsetOuter1"></feOffset>
            <feComposite in="shadowOffsetOuter1" in2="SourceAlpha" operator="out" result="shadowOffsetOuter1"></feComposite>
            <feColorMatrix values="0 0 0 0 0.894117647   0 0 0 0 0.894117647   0 0 0 0 0.894117647  0 0 0 1 0" type="matrix" in="shadowOffsetOuter1"></feColorMatrix>
        </filter>
        <path d="M49.5676644,34.2183423 L33.0221284,51.6019442 L51.5340752,89.3492965 L78.8607572,27.7206447 L108.178562,84.9254541 L136.006651,29.2311333 L111.826119,19.9631619 L195.530826,0 L170.975313,18.0972116 L122.070581,111.282361 L169.265874,205.117549 L195.530826,224 L111.826119,205.117549 L136.006651,194.641724 L108.178562,139.335278 L78.8607572,197.421131 L51.5340752,134.177411 L33.0221284,172.753338 L49.5676644,189.077002 L0,177.643131 L19.8100537,163.34551 L40.7796112,113.044359 L19.8100537,60.6000512 L0,46.6147352 L49.5676644,34.2183423 Z M79.6260233,80.9290323 L65.0322581,111.494055 L79.6260233,142.206592 L95.0010729,111.494055 L79.6260233,80.9290323 Z" id="path-9"></path>
        <filter x="-2.5%" y="-2.1%" width="106.1%" height="104.1%" filterUnits="objectBoundingBox" id="filter-10">
            <feMorphology radius="3" operator="erode" in="SourceAlpha" result="shadowSpreadInner1"></feMorphology>
            <feGaussianBlur stdDeviation="0.5" in="shadowSpreadInner1" result="shadowBlurInner1"></feGaussianBlur>
            <feOffset dx="0" dy="1" in="shadowBlurInner1" result="shadowOffsetInner1"></feOffset>
            <feComposite in="shadowOffsetInner1" in2="SourceAlpha" operator="arithmetic" k2="-1" k3="1" result="shadowInnerInner1"></feComposite>
            <feColorMatrix values="0 0 0 0 0.368627451   0 0 0 0 0.364705882   0 0 0 0 0.4  0 0 0 1 0" type="matrix" in="shadowInnerInner1"></feColorMatrix>
        </filter>
    </defs>
    <g id="Page-1" stroke="none" stroke-width="1" fill="none" fill-rule="evenodd">
        <g id="xtremeautoglass-logo" transform="translate(3.000000, 3.000000)">
            <g id="Xtreme">
                <use fill="black" fill-opacity="1" filter="url(#filter-2)" xlink:href="#path-1"></use>
                <use fill="#F5E135" fill-rule="evenodd" xlink:href="#path-1"></use>
            </g>
            <g id="AUTOGLASS">
                <use fill="black" fill-opacity="1" filter="url(#filter-4)" xlink:href="#path-3"></use>
                <use fill="#F5E135" fill-rule="evenodd" xlink:href="#path-3"></use>
            </g>
            <g id="Pros">
                <use fill="black" fill-opacity="1" filter="url(#filter-6)" xlink:href="#path-5"></use>
                <use fill="#F5E135" fill-rule="evenodd" xlink:href="#path-5"></use>
            </g>
            <g id="Pittsburgh">
                <use fill="black" fill-opacity="1" filter="url(#filter-8)" xlink:href="#path-7"></use>
                <use fill="#F5E135" fill-rule="evenodd" xlink:href="#path-7"></use>
            </g>
            <g id="Combined-Shape">
                <use fill="#F5E135" fill-rule="evenodd" xlink:href="#path-9"></use>
                <use fill="black" fill-opacity="1" filter="url(#filter-10)" xlink:href="#path-9"></use>
                <use stroke="#E4E4E4" stroke-width="2" xlink:href="#path-9"></use>
            </g>
        </g>
    </g>
</svg>